<svg width="408" height="226" viewBox="0 0 408 226" fill="none" xmlns="http://www.w3.org/2000/svg">
<path d="M112.946 24.1817C130.446 24.1827 147.554 29.379 162.105 39.1136C176.656 48.8482 187.998 62.6839 194.695 78.8714C201.392 95.0588 203.145 112.871 199.731 130.056C196.318 147.24 187.891 163.026 175.517 175.416C167.3 183.643 157.545 190.17 146.809 194.623C136.073 199.076 124.566 201.368 112.945 201.369C89.475 201.371 66.9658 192.038 50.3691 175.424C33.7724 158.81 24.4476 136.276 24.446 112.779C24.4444 89.2822 33.7663 66.7469 50.3608 50.1308C58.5597 41.876 68.313 35.332 79.0559 30.8777C89.7989 26.4234 101.318 24.1475 112.946 24.1817ZM112.946 17.2475C60.233 17.2475 17.5156 60.0145 17.5156 112.788C17.5156 165.562 60.233 208.329 112.946 208.329C165.658 208.329 208.375 165.559 208.375 112.788C208.375 60.0178 165.625 17.2475 112.946 17.2475Z" fill="#F87C15"/>
<path d="M408 64.5654V161.235C408.001 166.647 405.854 171.838 402.033 175.666C398.211 179.495 393.027 181.646 387.621 181.648H382.32C387.726 181.646 392.911 179.495 396.732 175.666C400.554 171.838 402.701 166.647 402.7 161.235V64.5654C402.7 61.8859 402.173 59.2326 401.149 56.757C400.125 54.2813 398.624 52.0319 396.732 50.1373C394.839 48.2426 392.592 46.7397 390.12 45.7145C387.647 44.6893 384.997 44.1619 382.32 44.1623H387.621C390.297 44.1619 392.947 44.6893 395.42 45.7145C397.893 46.7397 400.139 48.2426 402.032 50.1373C403.924 52.0319 405.426 54.2813 406.45 56.757C407.474 59.2326 408 61.8859 408 64.5654Z" fill="#F87C15"/>
<path d="M403.138 64.4354V161.105C403.139 166.517 400.993 171.708 397.171 175.536C393.349 179.364 388.165 181.516 382.759 181.518H138.615C133.208 181.517 128.022 179.366 124.199 175.538C120.376 171.71 118.229 166.518 118.229 161.105V64.4354C118.229 61.7554 118.756 59.1017 119.78 56.6259C120.805 54.15 122.307 51.9005 124.2 50.0058C126.093 48.1111 128.34 46.6084 130.814 45.5834C133.287 44.5585 135.938 44.0314 138.615 44.0322H382.759C385.435 44.0318 388.086 44.5592 390.558 45.5844C393.031 46.6096 395.278 48.1125 397.17 50.0072C399.063 51.9019 400.564 54.1513 401.588 56.6269C402.612 59.1025 403.139 61.7559 403.138 64.4354Z" fill="white"/>
<path d="M138.615 181.518H133.315C127.911 181.512 122.73 179.358 118.911 175.531C115.092 171.703 112.946 166.515 112.945 161.105V64.4354C112.946 61.7555 113.473 59.1021 114.498 56.6264C115.523 54.1507 117.025 51.9014 118.918 50.0068C120.811 48.1122 123.058 46.6094 125.531 45.5843C128.004 44.5592 130.655 44.0318 133.331 44.0322H138.615C135.938 44.0314 133.287 44.5585 130.814 45.5834C128.341 46.6084 126.093 48.1111 124.2 50.0058C122.307 51.9005 120.805 54.15 119.781 56.6259C118.756 59.1017 118.229 61.7554 118.229 64.4354V161.105C118.229 166.518 120.377 171.71 124.2 175.538C128.023 179.366 133.208 181.517 138.615 181.518Z" fill="#E6E6E6"/>
<path d="M169.248 169.157C200.353 138.016 200.353 87.5268 169.248 56.3858C138.143 25.2447 87.7124 25.2447 56.6075 56.3858C25.5026 87.5268 25.5026 138.016 56.6075 169.157C87.7124 200.298 138.143 200.298 169.248 169.157Z" fill="#F87C15"/>
<path d="M112.945 54.5317C145.003 54.5317 171.095 80.6639 171.095 112.788C171.095 144.913 145.003 171.005 112.945 171.005C80.8883 171.005 54.7565 144.883 54.7565 112.788C54.7565 80.6939 80.8584 54.5317 112.945 54.5317ZM112.945 51.0629C78.9099 51.0629 51.3184 78.6932 51.3184 112.762C51.3184 146.83 78.9165 174.46 112.945 174.46C146.974 174.46 174.573 146.83 174.573 112.762C174.573 78.6932 146.964 51.0729 112.945 51.0729V51.0629Z" fill="white"/>
</svg>
